<svg width="140" height="26" viewBox="0 0 140 26" fill="none" xmlns="http://www.w3.org/2000/svg">
<path d="M10.6852 8.0434C7.493 3.94612 6.95973 3.02826 6.95973 1.63095V0L7.95337 1.18333C10.6475 4.3929 16.0834 11.794 16.9729 13.4634C18.3328 16.0156 18.3432 19.2754 16.9989 21.9398C15.781 24.3546 14.0011 25.6514 11.5374 25.9194C5.13907 26.6154 1.58931 18.6503 5.82768 13.1067C6.72802 11.9288 6.90853 11.8526 7.40969 12.4355C7.88264 12.9853 7.82059 13.4023 7.03393 14.9646C6.45901 16.1065 6.09192 17.6357 6.09192 18.8885C6.09192 20.6438 6.30367 21.1576 7.55331 22.4364C8.77908 23.6909 9.30888 23.9317 10.841 23.9317C13.1164 23.9317 14.9019 22.382 15.6291 19.7754C16.5355 16.5269 15.6413 14.4043 10.6852 8.0434Z" fill="#334155"/>
<path d="M1.07254 13.4421C1.70343 12.2294 3.20821 10.1362 4.41576 8.79125C5.62374 7.44587 6.73887 6.35131 6.89421 6.35884C7.30685 6.37894 12.1475 12.8312 13.0938 14.6229C14.5378 17.356 14.0154 20.7795 11.9553 22.0822C10.4262 23.0494 10.2739 22.7057 11.2701 20.5325C12.5527 17.7345 11.5604 14.9403 7.6709 10.3962L6.65817 9.21291L5.48316 10.5604C4.83708 11.3015 3.79267 12.8701 3.16265 14.0467C1.10942 17.8794 1.96204 22.779 5.10349 25.2001C6.30367 26.125 6.3041 26.128 5.22412 25.8072C0.649915 24.4501 -1.43108 18.2521 1.07254 13.4421Z" fill="#334155"/>
<path d="M28.7585 20V11.2727H30.6037V14.8736H34.3494V11.2727H36.1903V20H34.3494V16.3949H30.6037V20H28.7585ZM40.6605 20.1278C39.9872 20.1278 39.4077 19.9915 38.9219 19.7188C38.4389 19.4432 38.0668 19.054 37.8054 18.5511C37.544 18.0455 37.4134 17.4474 37.4134 16.7571C37.4134 16.0838 37.544 15.4929 37.8054 14.9844C38.0668 14.4759 38.4347 14.0795 38.9091 13.7955C39.3864 13.5114 39.946 13.3693 40.5881 13.3693C41.0199 13.3693 41.4219 13.4389 41.794 13.5781C42.169 13.7145 42.4957 13.9205 42.7741 14.196C43.0554 14.4716 43.2741 14.8182 43.4304 15.2358C43.5866 15.6506 43.6648 16.1364 43.6648 16.6932V17.1918H38.1378V16.0668H41.956C41.956 15.8054 41.8991 15.5739 41.7855 15.3722C41.6719 15.1705 41.5142 15.0128 41.3125 14.8991C41.1136 14.7827 40.8821 14.7244 40.6179 14.7244C40.3423 14.7244 40.098 14.7884 39.8849 14.9162C39.6747 15.0412 39.5099 15.2102 39.3906 15.4233C39.2713 15.6335 39.2102 15.8679 39.2074 16.1264V17.196C39.2074 17.5199 39.267 17.7997 39.3864 18.0355C39.5085 18.2713 39.6804 18.4531 39.902 18.581C40.1236 18.7088 40.3864 18.7727 40.6903 18.7727C40.892 18.7727 41.0767 18.7443 41.2443 18.6875C41.4119 18.6307 41.5554 18.5455 41.6747 18.4318C41.794 18.3182 41.8849 18.179 41.9474 18.0142L43.6264 18.125C43.5412 18.5284 43.3665 18.8807 43.1023 19.1818C42.8409 19.4801 42.5028 19.7131 42.0881 19.8807C41.6761 20.0455 41.2003 20.1278 40.6605 20.1278ZM44.8494 20V13.4545H46.5795V14.6094H46.6562C46.7926 14.2259 47.0199 13.9233 47.3381 13.7017C47.6562 13.4801 48.0369 13.3693 48.4801 13.3693C48.929 13.3693 49.3111 13.4815 49.6264 13.706C49.9418 13.9276 50.152 14.2287 50.2571 14.6094H50.3253C50.4588 14.2344 50.7003 13.9347 51.0497 13.7102C51.402 13.483 51.8182 13.3693 52.2983 13.3693C52.9091 13.3693 53.4048 13.5639 53.7855 13.9531C54.169 14.3395 54.3608 14.8878 54.3608 15.598V20H52.5497V15.956C52.5497 15.5923 52.4531 15.3196 52.2599 15.1378C52.0668 14.956 51.8253 14.8651 51.5355 14.8651C51.206 14.8651 50.9489 14.9702 50.7642 15.1804C50.5795 15.3878 50.4872 15.6619 50.4872 16.0028V20H48.7273V15.9176C48.7273 15.5966 48.6349 15.3409 48.4503 15.1506C48.2685 14.9602 48.0284 14.8651 47.7301 14.8651C47.5284 14.8651 47.3466 14.9162 47.1847 15.0185C47.0256 15.1179 46.8991 15.2585 46.8054 15.4403C46.7116 15.6193 46.6648 15.8295 46.6648 16.071V20H44.8494ZM57.6612 20.1236C57.2436 20.1236 56.8714 20.0511 56.5447 19.9062C56.218 19.7585 55.9595 19.5412 55.7692 19.2543C55.5817 18.9645 55.4879 18.6037 55.4879 18.1719C55.4879 17.8082 55.5547 17.5028 55.6882 17.2557C55.8217 17.0085 56.0036 16.8097 56.2337 16.6591C56.4638 16.5085 56.7251 16.3949 57.0178 16.3182C57.3132 16.2415 57.6229 16.1875 57.9467 16.1562C58.3274 16.1165 58.6342 16.0795 58.8672 16.0455C59.1001 16.0085 59.2692 15.9545 59.3743 15.8835C59.4794 15.8125 59.532 15.7074 59.532 15.5682V15.5426C59.532 15.2727 59.4467 15.0639 59.2763 14.9162C59.1087 14.7685 58.87 14.6946 58.5604 14.6946C58.2337 14.6946 57.9737 14.767 57.7805 14.9119C57.5874 15.054 57.4595 15.233 57.397 15.4489L55.718 15.3125C55.8033 14.9148 55.9709 14.571 56.2209 14.2812C56.4709 13.9886 56.7933 13.7642 57.1882 13.608C57.5859 13.4489 58.0462 13.3693 58.5689 13.3693C58.9325 13.3693 59.2805 13.4119 59.6129 13.4972C59.9482 13.5824 60.245 13.7145 60.5036 13.8935C60.7649 14.0724 60.9709 14.3026 61.1214 14.5838C61.272 14.8622 61.3473 15.196 61.3473 15.5852V20H59.6257V19.0923H59.5746C59.4695 19.2969 59.3288 19.4773 59.1527 19.6335C58.9766 19.7869 58.7649 19.9077 58.5178 19.9957C58.2706 20.081 57.9851 20.1236 57.6612 20.1236ZM58.1811 18.8707C58.4482 18.8707 58.6839 18.8182 58.8885 18.7131C59.093 18.6051 59.2536 18.4602 59.37 18.2784C59.4865 18.0966 59.5447 17.8906 59.5447 17.6605V16.9659C59.4879 17.0028 59.4098 17.0369 59.3104 17.0682C59.2138 17.0966 59.1044 17.1236 58.9822 17.1491C58.8601 17.1719 58.7379 17.1932 58.6158 17.2131C58.4936 17.2301 58.3828 17.2457 58.2834 17.2599C58.0703 17.2912 57.8842 17.3409 57.7251 17.4091C57.5661 17.4773 57.4425 17.5696 57.3544 17.6861C57.2663 17.7997 57.2223 17.9418 57.2223 18.1122C57.2223 18.3594 57.3118 18.5483 57.4908 18.679C57.6726 18.8068 57.9027 18.8707 58.1811 18.8707ZM66.2372 13.4545V14.8182H62.2955V13.4545H66.2372ZM63.1903 11.8864H65.0057V17.9886C65.0057 18.1562 65.0313 18.2869 65.0824 18.3807C65.1335 18.4716 65.2045 18.5355 65.2955 18.5724C65.3892 18.6094 65.4972 18.6278 65.6193 18.6278C65.7045 18.6278 65.7898 18.6207 65.875 18.6065C65.9602 18.5895 66.0256 18.5767 66.071 18.5682L66.3565 19.919C66.2656 19.9474 66.1378 19.9801 65.973 20.017C65.8082 20.0568 65.608 20.081 65.3722 20.0895C64.9347 20.1065 64.5511 20.0483 64.2216 19.9148C63.8949 19.7812 63.6406 19.5739 63.4588 19.2926C63.277 19.0114 63.1875 18.6562 63.1903 18.2273V11.8864ZM70.3068 20.1278C69.6449 20.1278 69.0724 19.9872 68.5895 19.706C68.1094 19.4219 67.7386 19.027 67.4773 18.5213C67.2159 18.0128 67.0852 17.4233 67.0852 16.7528C67.0852 16.0767 67.2159 15.4858 67.4773 14.9801C67.7386 14.4716 68.1094 14.0767 68.5895 13.7955C69.0724 13.5114 69.6449 13.3693 70.3068 13.3693C70.9688 13.3693 71.5398 13.5114 72.0199 13.7955C72.5028 14.0767 72.875 14.4716 73.1364 14.9801C73.3977 15.4858 73.5284 16.0767 73.5284 16.7528C73.5284 17.4233 73.3977 18.0128 73.1364 18.5213C72.875 19.027 72.5028 19.4219 72.0199 19.706C71.5398 19.9872 70.9688 20.1278 70.3068 20.1278ZM70.3153 18.7216C70.6165 18.7216 70.8679 18.6364 71.0696 18.4659C71.2713 18.2926 71.4233 18.0568 71.5256 17.7585C71.6307 17.4602 71.6832 17.1207 71.6832 16.7401C71.6832 16.3594 71.6307 16.0199 71.5256 15.7216C71.4233 15.4233 71.2713 15.1875 71.0696 15.0142C70.8679 14.8409 70.6165 14.7543 70.3153 14.7543C70.0114 14.7543 69.7557 14.8409 69.5483 15.0142C69.3438 15.1875 69.1889 15.4233 69.0838 15.7216C68.9815 16.0199 68.9304 16.3594 68.9304 16.7401C68.9304 17.1207 68.9815 17.4602 69.0838 17.7585C69.1889 18.0568 69.3438 18.2926 69.5483 18.4659C69.7557 18.6364 70.0114 18.7216 70.3153 18.7216ZM80.1548 15.321L78.4929 15.4233C78.4645 15.2812 78.4034 15.1534 78.3097 15.0398C78.2159 14.9233 78.0923 14.831 77.9389 14.7628C77.7884 14.6918 77.608 14.6562 77.3977 14.6562C77.1165 14.6562 76.8793 14.7159 76.6861 14.8352C76.4929 14.9517 76.3963 15.108 76.3963 15.304C76.3963 15.4602 76.4588 15.5923 76.5838 15.7003C76.7088 15.8082 76.9233 15.8949 77.2273 15.9602L78.4119 16.1989C79.0483 16.3295 79.5227 16.5398 79.8352 16.8295C80.1477 17.1193 80.304 17.5 80.304 17.9716C80.304 18.4006 80.1776 18.777 79.9247 19.1009C79.6747 19.4247 79.331 19.6776 78.8935 19.8594C78.4588 20.0384 77.9574 20.1278 77.3892 20.1278C76.5227 20.1278 75.8324 19.9474 75.3182 19.5866C74.8068 19.223 74.5071 18.7287 74.419 18.1037L76.2045 18.0099C76.2585 18.2741 76.3892 18.4759 76.5966 18.6151C76.804 18.7514 77.0696 18.8196 77.3935 18.8196C77.7116 18.8196 77.9673 18.7585 78.1605 18.6364C78.3565 18.5114 78.456 18.3509 78.4588 18.1548C78.456 17.9901 78.3864 17.8551 78.25 17.75C78.1136 17.642 77.9034 17.5597 77.6193 17.5028L76.4858 17.277C75.8466 17.1491 75.3707 16.9276 75.0582 16.6122C74.7486 16.2969 74.5938 15.8949 74.5938 15.4062C74.5938 14.9858 74.7074 14.6236 74.9347 14.3196C75.1648 14.0156 75.4872 13.7812 75.902 13.6165C76.3196 13.4517 76.8082 13.3693 77.3679 13.3693C78.1946 13.3693 78.8452 13.544 79.3196 13.8935C79.7969 14.2429 80.0753 14.7187 80.1548 15.321ZM84.4045 20.1278C83.734 20.1278 83.1573 19.9858 82.6744 19.7017C82.1942 19.4148 81.8249 19.017 81.5664 18.5085C81.3107 18 81.1829 17.4148 81.1829 16.7528C81.1829 16.0824 81.3121 15.4943 81.5707 14.9886C81.832 14.4801 82.2028 14.0838 82.6829 13.7997C83.163 13.5128 83.734 13.3693 84.396 13.3693C84.967 13.3693 85.467 13.473 85.896 13.6804C86.3249 13.8878 86.6644 14.179 86.9144 14.554C87.1644 14.929 87.3022 15.3693 87.3278 15.875H85.6147C85.5664 15.5483 85.4386 15.2855 85.2312 15.0866C85.0266 14.8849 84.7582 14.7841 84.4258 14.7841C84.1445 14.7841 83.8988 14.8608 83.6886 15.0142C83.4812 15.1648 83.3192 15.3849 83.2028 15.6747C83.0863 15.9645 83.0281 16.3153 83.0281 16.7273C83.0281 17.1449 83.0849 17.5 83.1985 17.7926C83.315 18.0852 83.4783 18.3082 83.6886 18.4616C83.8988 18.6151 84.1445 18.6918 84.4258 18.6918C84.6332 18.6918 84.8192 18.6491 84.984 18.5639C85.1516 18.4787 85.2894 18.3551 85.3974 18.1932C85.5082 18.0284 85.5806 17.831 85.6147 17.6009H87.3278C87.2994 18.1009 87.163 18.5412 86.9187 18.9219C86.6772 19.2997 86.3434 19.5952 85.9173 19.8082C85.4911 20.0213 84.9869 20.1278 84.4045 20.1278ZM90.3565 20.1236C89.9389 20.1236 89.5668 20.0511 89.2401 19.9062C88.9134 19.7585 88.6548 19.5412 88.4645 19.2543C88.277 18.9645 88.1832 18.6037 88.1832 18.1719C88.1832 17.8082 88.25 17.5028 88.3835 17.2557C88.517 17.0085 88.6989 16.8097 88.929 16.6591C89.1591 16.5085 89.4205 16.3949 89.7131 16.3182C90.0085 16.2415 90.3182 16.1875 90.642 16.1562C91.0227 16.1165 91.3295 16.0795 91.5625 16.0455C91.7955 16.0085 91.9645 15.9545 92.0696 15.8835C92.1747 15.8125 92.2273 15.7074 92.2273 15.5682V15.5426C92.2273 15.2727 92.142 15.0639 91.9716 14.9162C91.804 14.7685 91.5653 14.6946 91.2557 14.6946C90.929 14.6946 90.669 14.767 90.4759 14.9119C90.2827 15.054 90.1548 15.233 90.0923 15.4489L88.4134 15.3125C88.4986 14.9148 88.6662 14.571 88.9162 14.2812C89.1662 13.9886 89.4886 13.7642 89.8835 13.608C90.2813 13.4489 90.7415 13.3693 91.2642 13.3693C91.6278 13.3693 91.9759 13.4119 92.3082 13.4972C92.6435 13.5824 92.9403 13.7145 93.1989 13.8935C93.4602 14.0724 93.6662 14.3026 93.8168 14.5838C93.9673 14.8622 94.0426 15.196 94.0426 15.5852V20H92.321V19.0923H92.2699C92.1648 19.2969 92.0241 19.4773 91.848 19.6335C91.6719 19.7869 91.4602 19.9077 91.2131 19.9957C90.9659 20.081 90.6804 20.1236 90.3565 20.1236ZM90.8764 18.8707C91.1435 18.8707 91.3793 18.8182 91.5838 18.7131C91.7884 18.6051 91.9489 18.4602 92.0653 18.2784C92.1818 18.0966 92.2401 17.8906 92.2401 17.6605V16.9659C92.1832 17.0028 92.1051 17.0369 92.0057 17.0682C91.9091 17.0966 91.7997 17.1236 91.6776 17.1491C91.5554 17.1719 91.4332 17.1932 91.3111 17.2131C91.1889 17.2301 91.0781 17.2457 90.9787 17.2599C90.7656 17.2912 90.5795 17.3409 90.4205 17.4091C90.2614 17.4773 90.1378 17.5696 90.0497 17.6861C89.9616 17.7997 89.9176 17.9418 89.9176 18.1122C89.9176 18.3594 90.0071 18.5483 90.1861 18.679C90.3679 18.8068 90.598 18.8707 90.8764 18.8707ZM97.2663 16.2159V20H95.451V13.4545H97.1811V14.6094H97.2578C97.4027 14.2287 97.6456 13.9276 97.9865 13.706C98.3274 13.4815 98.7408 13.3693 99.2266 13.3693C99.6811 13.3693 100.077 13.4688 100.415 13.6676C100.754 13.8665 101.016 14.1506 101.204 14.5199C101.391 14.8864 101.485 15.3239 101.485 15.8324V20H99.6697V16.1562C99.6726 15.7557 99.5703 15.4432 99.3629 15.2188C99.1555 14.9915 98.87 14.8778 98.5064 14.8778C98.2621 14.8778 98.0462 14.9304 97.8587 15.0355C97.674 15.1406 97.5291 15.294 97.424 15.4957C97.3217 15.6946 97.2692 15.9347 97.2663 16.2159ZM113.027 11.2727V20H111.433L107.636 14.5071H107.572V20H105.727V11.2727H107.347L111.114 16.7614H111.19V11.2727H113.027ZM117.475 20.1278C116.813 20.1278 116.24 19.9872 115.757 19.706C115.277 19.4219 114.907 19.027 114.645 18.5213C114.384 18.0128 114.253 17.4233 114.253 16.7528C114.253 16.0767 114.384 15.4858 114.645 14.9801C114.907 14.4716 115.277 14.0767 115.757 13.7955C116.24 13.5114 116.813 13.3693 117.475 13.3693C118.137 13.3693 118.708 13.5114 119.188 13.7955C119.671 14.0767 120.043 14.4716 120.304 14.9801C120.566 15.4858 120.696 16.0767 120.696 16.7528C120.696 17.4233 120.566 18.0128 120.304 18.5213C120.043 19.027 119.671 19.4219 119.188 19.706C118.708 19.9872 118.137 20.1278 117.475 20.1278ZM117.483 18.7216C117.784 18.7216 118.036 18.6364 118.238 18.4659C118.439 18.2926 118.591 18.0568 118.694 17.7585C118.799 17.4602 118.851 17.1207 118.851 16.7401C118.851 16.3594 118.799 16.0199 118.694 15.7216C118.591 15.4233 118.439 15.1875 118.238 15.0142C118.036 14.8409 117.784 14.7543 117.483 14.7543C117.179 14.7543 116.924 14.8409 116.716 15.0142C116.512 15.1875 116.357 15.4233 116.252 15.7216C116.15 16.0199 116.098 16.3594 116.098 16.7401C116.098 17.1207 116.15 17.4602 116.252 17.7585C116.357 18.0568 116.512 18.2926 116.716 18.4659C116.924 18.6364 117.179 18.7216 117.483 18.7216ZM125.358 13.4545V14.8182H121.417V13.4545H125.358ZM122.311 11.8864H124.127V17.9886C124.127 18.1562 124.152 18.2869 124.203 18.3807C124.255 18.4716 124.326 18.5355 124.417 18.5724C124.51 18.6094 124.618 18.6278 124.74 18.6278C124.826 18.6278 124.911 18.6207 124.996 18.6065C125.081 18.5895 125.147 18.5767 125.192 18.5682L125.478 19.919C125.387 19.9474 125.259 19.9801 125.094 20.017C124.929 20.0568 124.729 20.081 124.493 20.0895C124.056 20.1065 123.672 20.0483 123.343 19.9148C123.016 19.7812 122.762 19.5739 122.58 19.2926C122.398 19.0114 122.309 18.6562 122.311 18.2273V11.8864ZM129.453 20.1278C128.78 20.1278 128.201 19.9915 127.715 19.7188C127.232 19.4432 126.86 19.054 126.598 18.5511C126.337 18.0455 126.206 17.4474 126.206 16.7571C126.206 16.0838 126.337 15.4929 126.598 14.9844C126.86 14.4759 127.228 14.0795 127.702 13.7955C128.179 13.5114 128.739 13.3693 129.381 13.3693C129.813 13.3693 130.215 13.4389 130.587 13.5781C130.962 13.7145 131.289 13.9205 131.567 14.196C131.848 14.4716 132.067 14.8182 132.223 15.2358C132.38 15.6506 132.458 16.1364 132.458 16.6932V17.1918H126.931V16.0668H130.749C130.749 15.8054 130.692 15.5739 130.578 15.3722C130.465 15.1705 130.307 15.0128 130.105 14.8991C129.907 14.7827 129.675 14.7244 129.411 14.7244C129.135 14.7244 128.891 14.7884 128.678 14.9162C128.468 15.0412 128.303 15.2102 128.184 15.4233C128.064 15.6335 128.003 15.8679 128 16.1264V17.196C128 17.5199 128.06 17.7997 128.179 18.0355C128.301 18.2713 128.473 18.4531 128.695 18.581C128.917 18.7088 129.179 18.7727 129.483 18.7727C129.685 18.7727 129.87 18.7443 130.037 18.6875C130.205 18.6307 130.348 18.5455 130.468 18.4318C130.587 18.3182 130.678 18.179 130.74 18.0142L132.419 18.125C132.334 18.5284 132.159 18.8807 131.895 19.1818C131.634 19.4801 131.296 19.7131 130.881 19.8807C130.469 20.0455 129.993 20.1278 129.453 20.1278ZM139.088 15.321L137.426 15.4233C137.398 15.2812 137.337 15.1534 137.243 15.0398C137.15 14.9233 137.026 14.831 136.873 14.7628C136.722 14.6918 136.542 14.6562 136.331 14.6562C136.05 14.6562 135.813 14.7159 135.62 14.8352C135.426 14.9517 135.33 15.108 135.33 15.304C135.33 15.4602 135.392 15.5923 135.517 15.7003C135.642 15.8082 135.857 15.8949 136.161 15.9602L137.346 16.1989C137.982 16.3295 138.456 16.5398 138.769 16.8295C139.081 17.1193 139.238 17.5 139.238 17.9716C139.238 18.4006 139.111 18.777 138.858 19.1009C138.608 19.4247 138.265 19.6776 137.827 19.8594C137.392 20.0384 136.891 20.1278 136.323 20.1278C135.456 20.1278 134.766 19.9474 134.252 19.5866C133.74 19.223 133.441 18.7287 133.353 18.1037L135.138 18.0099C135.192 18.2741 135.323 18.4759 135.53 18.6151C135.738 18.7514 136.003 18.8196 136.327 18.8196C136.645 18.8196 136.901 18.7585 137.094 18.6364C137.29 18.5114 137.39 18.3509 137.392 18.1548C137.39 17.9901 137.32 17.8551 137.184 17.75C137.047 17.642 136.837 17.5597 136.553 17.5028L135.419 17.277C134.78 17.1491 134.304 16.9276 133.992 16.6122C133.682 16.2969 133.527 15.8949 133.527 15.4062C133.527 14.9858 133.641 14.6236 133.868 14.3196C134.098 14.0156 134.421 13.7812 134.836 13.6165C135.253 13.4517 135.742 13.3693 136.301 13.3693C137.128 13.3693 137.779 13.544 138.253 13.8935C138.73 14.2429 139.009 14.7187 139.088 15.321Z" fill="#334155"/>
</svg>
